<svg width="71" height="70" viewBox="0 0 71 70" fill="none" xmlns="http://www.w3.org/2000/svg">
<circle cx="35.75" cy="35" r="35" fill="#16213C"/>
<g clip-path="url(#clip0_158_1401)">
<path d="M37.0001 30C37.0001 25.875 33.6251 22.5 29.5001 22.5C25.3751 22.5 22.0001 25.875 22.0001 30C22.0001 34.125 25.3751 37.5 29.5001 37.5C33.6251 37.5 37.0001 34.125 37.0001 30ZM29.5001 32.5C28.1251 32.5 27.0001 31.375 27.0001 30C27.0001 28.625 28.1251 27.5 29.5001 27.5C30.8751 27.5 32.0001 28.625 32.0001 30C32.0001 31.375 30.8751 32.5 29.5001 32.5ZM45.7501 37.5C48.5251 37.5 50.7501 35.275 50.7501 32.5C50.7501 29.725 48.5251 27.5 45.7501 27.5C42.9751 27.5 40.7251 29.725 40.7501 32.5C40.7501 35.275 42.9751 37.5 45.7501 37.5ZM35.7251 10.025C21.9251 10.025 10.7251 21.225 10.7251 35.025C10.7251 48.825 21.9251 60.025 35.7251 60.025C49.5251 60.025 60.7251 48.825 60.7251 35.025C60.7251 21.225 49.5251 10.025 35.7251 10.025ZM20.3501 47.8C22.0501 46.45 26.0251 45.025 29.5001 45.025C29.6751 45.025 29.8751 45.05 30.0751 45.05C30.6751 43.45 31.7501 41.825 33.3251 40.4C32.0638 40.1584 30.7841 40.0246 29.5001 40C26.2501 40 21.0251 41.125 17.6751 43.575C16.4251 40.975 15.7251 38.075 15.7251 35C15.7251 23.975 24.7001 15 35.7251 15C46.7501 15 55.7251 23.975 55.7251 35C55.7251 38 55.0501 40.85 53.8501 43.425C51.3501 41.95 47.9501 41.25 45.7501 41.25C41.9501 41.25 34.5001 43.275 34.5001 48V54.95C31.7767 54.7952 29.1144 54.0803 26.6798 52.85C24.2451 51.6198 22.0903 49.9007 20.3501 47.8Z" fill="#8ECAE6"/>
</g>
<defs>
<clipPath id="clip0_158_1401">
<rect width="60" height="60" fill="white" transform="translate(5.75 5)"/>
</clipPath>
</defs>
</svg>
