<svg width="71" height="70" viewBox="0 0 71 70" fill="none" xmlns="http://www.w3.org/2000/svg">
<circle cx="35.75" cy="35" r="35" fill="#16213C"/>
<path d="M40.875 50.9375L53.3125 38.5L49.75 35L40.875 43.875L37.375 40.3125L33.8125 43.875L40.875 50.9375ZM23.25 42.5H30.75V37.5H23.25V42.5ZM23.25 35H40.75V30H23.25V35ZM23.25 27.5H40.75V22.5H23.25V27.5ZM35.75 60C32.2917 60 29.0417 59.3433 26 58.03C22.9583 56.7183 20.3125 54.9375 18.0625 52.6875C15.8125 50.4375 14.0317 47.7917 12.72 44.75C11.4067 41.7083 10.75 38.4583 10.75 35C10.75 31.5417 11.4067 28.2917 12.72 25.25C14.0317 22.2083 15.8125 19.5625 18.0625 17.3125C20.3125 15.0625 22.9583 13.2808 26 11.9675C29.0417 10.6558 32.2917 10 35.75 10C39.2083 10 42.4583 10.6558 45.5 11.9675C48.5417 13.2808 51.1875 15.0625 53.4375 17.3125C55.6875 19.5625 57.4683 22.2083 58.78 25.25C60.0933 28.2917 60.75 31.5417 60.75 35C60.75 38.4583 60.0933 41.7083 58.78 44.75C57.4683 47.7917 55.6875 50.4375 53.4375 52.6875C51.1875 54.9375 48.5417 56.7183 45.5 58.03C42.4583 59.3433 39.2083 60 35.75 60ZM35.75 55C41.3333 55 46.0625 53.0625 49.9375 49.1875C53.8125 45.3125 55.75 40.5833 55.75 35C55.75 29.4167 53.8125 24.6875 49.9375 20.8125C46.0625 16.9375 41.3333 15 35.75 15C30.1667 15 25.4375 16.9375 21.5625 20.8125C17.6875 24.6875 15.75 29.4167 15.75 35C15.75 40.5833 17.6875 45.3125 21.5625 49.1875C25.4375 53.0625 30.1667 55 35.75 55Z" fill="#8ECAE6"/>
</svg>
