<svg width="24" height="16" viewBox="0 0 24 16" fill="none" xmlns="http://www.w3.org/2000/svg">
<g clip-path="url(#clip0_321_145)">
<path d="M15.3424 7.63518C15.3424 11.5884 12.1376 14.7932 8.18436 14.7932C4.23113 14.7932 1.02637 11.5884 1.02637 7.63518C1.02637 3.68192 4.23113 0.477173 8.18436 0.477173C12.1376 0.477173 15.3424 3.68192 15.3424 7.63518Z" fill="#68DBFF"/>
<path d="M23.0619 7.63518C23.0619 11.5884 19.8885 14.7932 15.9741 14.7932C12.0596 14.7932 8.88623 11.5884 8.88623 7.63518C8.88623 3.68192 12.0596 0.477173 15.9741 0.477173C19.8885 0.477173 23.0619 3.68192 23.0619 7.63518Z" fill="#FF7917"/>
<path d="M12.0984 13.6294C14.0519 12.3512 15.3425 10.144 15.3425 7.63522C15.3425 5.12654 14.0519 2.91925 12.0984 1.64111C10.1641 2.91925 8.88623 5.12654 8.88623 7.63522C8.88623 10.144 10.1641 12.3512 12.0984 13.6294Z" fill="#5D2C02"/>
</g>
<defs>
<clipPath id="clip0_321_145">
<rect width="23.2238" height="15.5885" fill="white" transform="translate(0.432129)"/>
</clipPath>
</defs>
</svg>
