<svg width="55" height="14" viewBox="0 0 55 14" fill="none" xmlns="http://www.w3.org/2000/svg">
<g clip-path="url(#clip0_321_134)">
<path d="M16.5562 9.22419H20.3585V8.07891H17.9076V3.76501H16.5562V9.22419Z" fill="#340E0E"/>
<path d="M22.6113 8.46073C22.0692 8.46073 21.7867 7.98735 21.7867 7.27727C21.7867 6.5672 22.0692 6.08618 22.6113 6.08618C23.1534 6.08618 23.4435 6.5672 23.4435 7.27727C23.4435 7.98735 23.1534 8.46073 22.6113 8.46073ZM22.6189 9.34641C23.8787 9.34641 24.7033 8.45309 24.7033 7.27727C24.7033 6.10145 23.8787 5.20813 22.6189 5.20813C21.3667 5.20813 20.5269 6.10145 20.5269 7.27727C20.5269 8.45309 21.3667 9.34641 22.6189 9.34641Z" fill="#340E0E"/>
<path d="M26.8839 10.5756C27.4642 10.5756 27.9757 10.4458 28.3193 10.1404C28.6324 9.85792 28.8385 9.43034 28.8385 8.84243V5.31497H27.6474V5.7349H27.6322C27.4031 5.40659 27.0519 5.20044 26.5327 5.20044C25.563 5.20044 24.8911 6.00977 24.8911 7.15505C24.8911 8.35378 25.7081 9.01041 26.5861 9.01041C27.0595 9.01041 27.3573 8.81953 27.5863 8.55993H27.6169V8.94933C27.6169 9.42271 27.3955 9.69758 26.8686 9.69758C26.4563 9.69758 26.2502 9.52197 26.1815 9.31582H24.9751C25.0973 10.1328 25.8073 10.5756 26.8839 10.5756ZM26.8763 8.08655C26.4105 8.08655 26.1051 7.70479 26.1051 7.11688C26.1051 6.52133 26.4105 6.13957 26.8763 6.13957C27.3955 6.13957 27.6703 6.58241 27.6703 7.10924C27.6703 7.65898 27.4184 8.08655 26.8763 8.08655Z" fill="#340E0E"/>
<path d="M31.2875 8.46073C30.7454 8.46073 30.4629 7.98735 30.4629 7.27727C30.4629 6.5672 30.7454 6.08618 31.2875 6.08618C31.8296 6.08618 32.1198 6.5672 32.1198 7.27727C32.1198 7.98735 31.8296 8.46073 31.2875 8.46073ZM31.2952 9.34641C32.555 9.34641 33.3796 8.45309 33.3796 7.27727C33.3796 6.10145 32.555 5.20813 31.2952 5.20813C30.043 5.20813 29.2031 6.10145 29.2031 7.27727C29.2031 8.45309 30.043 9.34641 31.2952 9.34641Z" fill="#340E0E"/>
<path d="M33.7427 9.22419H34.9872V5.31496H33.7427V9.22419ZM33.7427 4.77286H34.9872V3.76501H33.7427V4.77286Z" fill="#340E0E"/>
<path d="M35.5278 10.5145H36.7724V8.81953H36.7876C37.032 9.14784 37.3908 9.34636 37.8947 9.34636C38.9179 9.34636 39.5974 8.53702 39.5974 7.26958C39.5974 6.09376 38.9637 5.20044 37.9253 5.20044C37.3908 5.20044 37.0091 5.43713 36.7418 5.78835H36.7189V5.31497H35.5278V10.5145ZM37.5741 8.38432C37.0396 8.38432 36.7342 7.94911 36.7342 7.31539C36.7342 6.68167 37.0091 6.20065 37.5512 6.20065C38.0856 6.20065 38.3376 6.64349 38.3376 7.31539C38.3376 7.97966 38.0475 8.38432 37.5741 8.38432Z" fill="#340E0E"/>
<path d="M41.6233 9.34636C42.6465 9.34636 43.4023 8.90351 43.4023 8.04837C43.4023 7.04816 42.593 6.87255 41.9058 6.75802C41.4095 6.6664 40.9667 6.62822 40.9667 6.35336C40.9667 6.10903 41.2034 5.9945 41.5088 5.9945C41.8524 5.9945 42.0891 6.10139 42.1349 6.45261H43.2802C43.2191 5.68146 42.6235 5.20044 41.5164 5.20044C40.5926 5.20044 39.8291 5.62801 39.8291 6.45261C39.8291 7.36884 40.5544 7.55208 41.2339 7.66661C41.7531 7.75823 42.2265 7.79641 42.2265 8.14763C42.2265 8.39959 41.9898 8.53702 41.6157 8.53702C41.2034 8.53702 40.9438 8.34614 40.898 7.95675H39.7222C39.7603 8.81953 40.4781 9.34636 41.6233 9.34636Z" fill="#340E0E"/>
<path d="M45.0931 9.3387C45.6352 9.3387 45.9788 9.12491 46.2613 8.74315H46.2842V9.22417H47.4753V5.31494H46.2307V7.49861C46.2307 7.96436 45.9711 8.28504 45.5436 8.28504C45.1465 8.28504 44.9557 8.04835 44.9557 7.62077V5.31494H43.7188V7.88037C43.7188 8.75078 44.1921 9.3387 45.0931 9.3387Z" fill="#340E0E"/>
<path d="M48.0161 9.22419H49.2607V7.03289C49.2607 6.56714 49.4897 6.23883 49.8791 6.23883C50.2532 6.23883 50.4288 6.48315 50.4288 6.90309V9.22419H51.6734V7.03289C51.6734 6.56714 51.8948 6.23883 52.2918 6.23883C52.666 6.23883 52.8416 6.48315 52.8416 6.90309V9.22419H54.0861V6.68167C54.0861 5.80362 53.6433 5.20044 52.7576 5.20044C52.2537 5.20044 51.8337 5.41423 51.5283 5.88761H51.513C51.3145 5.46767 50.9251 5.20044 50.4136 5.20044C49.8486 5.20044 49.4744 5.46767 49.2301 5.87234H49.2072V5.31497H48.0161V9.22419Z" fill="#340E0E"/>
<path fill-rule="evenodd" clip-rule="evenodd" d="M6.63807 13.0419C10.1521 13.0419 13.0007 10.1932 13.0007 6.67919C13.0007 3.1652 10.1521 0.316528 6.63807 0.316528C3.12405 0.316528 0.275391 3.1652 0.275391 6.67919C0.275391 10.1932 3.12405 13.0419 6.63807 13.0419ZM8.623 3.28053C8.71962 2.93733 8.38656 2.73438 8.0824 2.95109L3.8363 5.97599C3.50643 6.21099 3.55831 6.67919 3.91424 6.67919H5.03235V6.67054H7.2115L5.43591 7.29704L4.65314 10.0779C4.55652 10.4211 4.88954 10.624 5.19374 10.4073L9.43984 7.38242C9.76971 7.14742 9.71779 6.67919 9.3619 6.67919H7.66631L8.623 3.28053Z" fill="#F15757"/>
</g>
<defs>
<clipPath id="clip0_321_134">
<rect width="54.0827" height="13.0435" fill="white" transform="translate(0.0576172 0.272583)"/>
</clipPath>
</defs>
</svg>
