<svg width="43" height="14" viewBox="0 0 43 14" fill="none" xmlns="http://www.w3.org/2000/svg">
<path d="M8.33789 4.05515H8.97416V8.48357H10.883V9.11984H8.33789V4.05515ZM12.8649 4.05515C13.2425 4.05515 13.6115 4.1671 13.9254 4.37685C14.2393 4.58659 14.484 4.88468 14.6284 5.23349C14.7729 5.58229 14.8107 5.96608 14.7371 6.33633C14.6634 6.7066 14.4816 7.04672 14.2146 7.31367C13.9477 7.58064 13.6076 7.76243 13.2373 7.83607C12.8671 7.90972 12.4833 7.87193 12.1345 7.72746C11.7857 7.58297 11.4876 7.33832 11.2778 7.02442C11.0681 6.71052 10.9561 6.34148 10.9561 5.96395C10.9561 5.7133 11.0055 5.46506 11.1014 5.23349C11.1973 5.00188 11.338 4.79147 11.5152 4.61424C11.6925 4.43698 11.9029 4.29636 12.1345 4.20044C12.366 4.10453 12.6143 4.05515 12.8649 4.05515ZM12.8649 7.23649C13.1166 7.23649 13.3627 7.16185 13.5719 7.02203C13.7812 6.88218 13.9443 6.68344 14.0406 6.45092C14.1369 6.2184 14.1621 5.96255 14.113 5.71568C14.0639 5.46884 13.9427 5.24211 13.7647 5.06414C13.5868 4.88618 13.36 4.76497 13.1132 4.71588C12.8663 4.66676 12.6105 4.69196 12.378 4.78829C12.1454 4.88459 11.9467 5.0477 11.8069 5.25696C11.667 5.46623 11.5924 5.71228 11.5924 5.96395C11.5941 6.30035 11.7289 6.62239 11.9673 6.85966C12.2058 7.09692 12.5285 7.23012 12.8649 7.23012V7.23649ZM11.5924 8.48993H14.1375V9.1262H11.5924V8.48993ZM19.7366 9.1262H19.1004V8.67127C18.69 8.95848 18.2014 9.11284 17.7006 9.11348C17.2735 9.11634 16.8525 9.01167 16.4765 8.80912C16.1005 8.60653 15.7815 8.31261 15.5489 7.95439C15.3163 7.59617 15.1776 7.18517 15.1456 6.75925C15.1136 6.33337 15.1893 5.90624 15.3657 5.51729C15.5421 5.12831 15.8136 4.78998 16.155 4.5335C16.4966 4.27699 16.8971 4.11054 17.3198 4.04952C17.7426 3.98847 18.1739 4.03482 18.5739 4.18425C18.9741 4.33368 19.3301 4.58138 19.6094 4.90457L19.1417 5.32132C18.9293 5.08387 18.6609 4.90336 18.3609 4.79624C18.0609 4.6891 17.7388 4.65875 17.4241 4.70796C17.1093 4.75718 16.812 4.8844 16.5589 5.07798C16.306 5.2716 16.1054 5.52541 15.9757 5.81637C15.8459 6.1073 15.7911 6.42607 15.8161 6.74367C15.8411 7.06126 15.9451 7.36753 16.1188 7.63457C16.2925 7.90161 16.5303 8.12096 16.8105 8.27258C17.0906 8.42421 17.4043 8.5033 17.7228 8.50266C17.9872 8.5032 18.2486 8.44664 18.4891 8.33682C18.7296 8.227 18.9435 8.06653 19.1163 7.86639H17.3983V7.23012H19.743L19.7366 9.1262ZM22.0781 4.06788C22.4556 4.06788 22.8246 4.17983 23.1385 4.38957C23.4525 4.59932 23.6971 4.89741 23.8416 5.24621C23.9861 5.59501 24.0239 5.97881 23.9502 6.34905C23.8766 6.71933 23.6948 7.05945 23.4278 7.32639C23.1608 7.59337 22.8207 7.77515 22.4505 7.8488C22.0802 7.92245 21.6964 7.88465 21.3476 7.74019C20.9988 7.59569 20.7007 7.35105 20.491 7.03714C20.2812 6.72324 20.1693 6.35421 20.1693 5.97668C20.1676 5.7244 20.216 5.47431 20.3115 5.24084C20.4071 5.00736 20.548 4.79513 20.7261 4.61647C20.9042 4.43777 21.1159 4.29617 21.3491 4.19981C21.5822 4.10348 21.8322 4.05429 22.0844 4.05515L22.0781 4.06788ZM22.0781 7.24921C22.3298 7.24921 22.5758 7.17458 22.7851 7.03476C22.9943 6.89491 23.1574 6.69617 23.2537 6.46364C23.3501 6.23112 23.3753 5.97528 23.3262 5.72841C23.2771 5.48157 23.1559 5.25483 22.9779 5.07687C22.7999 4.89891 22.5732 4.7777 22.3264 4.72861C22.0795 4.67949 21.8236 4.70468 21.5911 4.80102C21.3586 4.89731 21.1598 5.06042 21.02 5.26969C20.8802 5.47896 20.8055 5.725 20.8055 5.97668C20.8106 6.31196 20.9477 6.63172 21.1872 6.86643C21.4267 7.10112 21.7491 7.23184 22.0844 7.23012L22.0781 7.24921ZM20.8055 8.50266H23.3506V9.13893H20.8055V8.50266ZM24.6645 4.05515H25.3008V9.11348H24.6645V4.05515ZM26.182 4.05515H26.8183C26.851 4.05168 26.8841 4.05168 26.9169 4.05515C27.1834 4.02623 27.4529 4.05378 27.7081 4.13596C27.9632 4.21816 28.1981 4.35315 28.3976 4.53216C28.5971 4.71117 28.7567 4.93021 28.8659 5.17498C28.9751 5.41975 29.0316 5.68479 29.0316 5.95282C29.0316 6.22085 28.9751 6.48588 28.8659 6.73065C28.7567 6.97543 28.5971 7.19446 28.3976 7.37348C28.1981 7.55249 27.9632 7.68747 27.7081 7.76968C27.4529 7.85185 27.1834 7.8794 26.9169 7.85048H26.8183V9.12302H26.182V4.05515ZM26.8183 4.69142V7.20785H26.9169C27.0966 7.23178 27.2793 7.21705 27.4529 7.16459C27.6265 7.11216 27.7868 7.02324 27.9232 6.90381C28.0596 6.78439 28.1689 6.63719 28.2438 6.47208C28.3187 6.30696 28.3574 6.12776 28.3574 5.94646C28.3574 5.76515 28.3187 5.58595 28.2438 5.42084C28.1689 5.25572 28.0596 5.10852 27.9232 4.9891C27.7868 4.86964 27.6265 4.78075 27.4529 4.72829C27.2793 4.67586 27.0966 4.66113 26.9169 4.68506C26.8822 4.68865 26.8481 4.69613 26.8151 4.70732L26.8183 4.69142ZM31.4026 4.421L30.9317 4.79322C30.8505 4.70834 30.7467 4.64841 30.6326 4.62047C30.5185 4.59254 30.3988 4.59776 30.2876 4.63552C30.1763 4.67325 30.0781 4.74197 30.0046 4.83359C29.931 4.92521 29.8851 5.03593 29.8724 5.15271V5.20361C29.8724 5.48357 30.0664 5.67127 30.445 5.69672C31.9021 5.7858 32.5701 6.46979 32.5701 7.37328V7.43055C32.5325 7.78813 32.393 8.12739 32.1681 8.40798C31.9432 8.68858 31.6425 8.89864 31.3017 9.01326C30.9609 9.12786 30.5944 9.14217 30.2457 9.05446C29.8969 8.96678 29.5808 8.78077 29.3347 8.51857L29.8215 8.14317C29.9347 8.2646 30.0731 8.35991 30.2269 8.42255C30.3807 8.48516 30.5463 8.5136 30.7122 8.50584C31.0187 8.522 31.3195 8.41915 31.5518 8.21876C31.7842 8.0184 31.9302 7.73599 31.9593 7.43055V7.38601C31.9593 6.53659 31.1258 6.38071 30.4036 6.31072C29.7356 6.24709 29.2552 5.83034 29.2552 5.22906V5.20361C29.2787 4.89057 29.4216 4.59852 29.6542 4.38779C29.8869 4.17703 30.1916 4.06365 30.5054 4.07106C30.6718 4.06616 30.8372 4.09616 30.9912 4.15918C31.1452 4.2222 31.2843 4.31682 31.3994 4.43691L31.4026 4.421ZM35.0611 8.46766C35.8533 8.46766 36.48 7.61188 36.48 6.55886V4.01379H37.1163V6.55886C37.1163 7.95865 36.2 9.08802 35.0738 9.08802C33.9476 9.08802 33.0314 7.95865 33.0314 6.55886V4.01379H33.6677V6.55886C33.6422 7.62779 34.269 8.48357 35.0579 8.48357L35.0611 8.46766ZM41.9996 9.10393H41.3633V5.95441L39.8967 7.86321L38.4301 5.95441V9.11348H37.7939V4.05515L39.8936 6.81973L41.9932 4.05515L41.9996 9.10393Z" fill="#394149"/>
<path d="M5.28405 3.29486C5.28405 2.83586 5.10173 2.39566 4.77717 2.0711C4.45261 1.74654 4.0124 1.56421 3.5534 1.56421C3.0944 1.56421 2.65421 1.74654 2.32965 2.0711C2.00509 2.39566 1.82275 2.83586 1.82275 3.29486V8.52815L3.24799 9.54936V12.0372H3.85881V9.54936L5.28405 8.52815V3.29486ZM4.67323 6.22169L3.85881 7.03611V6.27259L4.67323 5.45816V6.22169ZM2.4463 5.45816L3.26072 6.27259V7.03611L2.4463 6.22169V5.45816ZM4.67323 4.59284L3.5534 5.71267L2.43357 4.56739V3.80387L3.5534 4.9237L4.67323 3.80387V4.59284ZM3.5534 2.17503C3.79968 2.17611 4.03882 2.25791 4.23417 2.40788C4.42954 2.55785 4.57035 2.76772 4.63506 3.00535L3.5534 4.08383L2.47175 3.00535C2.53408 2.76535 2.67388 2.55263 2.86945 2.4002C3.06503 2.24777 3.30544 2.16414 3.5534 2.1623V2.17503ZM2.43357 8.21956V7.07428L3.24799 7.88871V8.79857L2.43357 8.21956ZM3.85881 8.80175V7.88871L4.67323 7.07428V8.21638L3.85881 8.80175Z" fill="#394149"/>
</svg>
