<svg width="47" height="16" viewBox="0 0 47 16" fill="none" xmlns="http://www.w3.org/2000/svg">
<g clip-path="url(#clip0_321_115)">
<path fill-rule="evenodd" clip-rule="evenodd" d="M23.1206 2.83379C23.5621 2.39232 24.2779 2.39232 24.7194 2.83379C25.1609 3.2753 25.1609 3.99111 24.7194 4.43261L22.0277 7.12431C21.2549 6.08859 21.3388 4.61557 22.2796 3.67485L23.1206 2.83379Z" fill="#4F9E91"/>
<path fill-rule="evenodd" clip-rule="evenodd" d="M26.9686 8.90672C27.4102 9.3482 27.4102 10.064 26.9686 10.5055C26.5274 10.947 25.8114 10.947 25.3699 10.5055L22.6782 7.81384C23.7139 7.04103 25.187 7.12495 26.1277 8.06568L26.9686 8.90672Z" fill="#EBE1C5"/>
<path fill-rule="evenodd" clip-rule="evenodd" d="M20.8957 12.7547C20.4543 13.1962 19.7384 13.1962 19.2969 12.7547C18.8554 12.3132 18.8554 11.5974 19.2969 11.1559L21.9886 8.46423C22.7614 9.49995 22.6775 10.973 21.7368 11.9137L20.8957 12.7547Z" fill="#EBCC6E"/>
<path fill-rule="evenodd" clip-rule="evenodd" d="M17.0474 6.68177C16.6059 6.24027 16.6059 5.52447 17.0474 5.08296C17.4889 4.64145 18.2047 4.64145 18.6463 5.08296L21.3379 7.77466C20.3022 8.54747 18.8292 8.46351 17.8885 7.52282L17.0474 6.68177Z" fill="#ED834E"/>
<path fill-rule="evenodd" clip-rule="evenodd" d="M22.519 12.4251C23.17 11.7012 23.4726 10.7751 23.4267 9.86316L24.7194 11.1559C24.7226 11.1591 24.7259 11.1623 24.7291 11.1655V12.0884C24.7291 12.7128 24.223 13.2189 23.5986 13.2189C23.0915 13.2189 22.6623 12.885 22.519 12.4251Z" fill="#ED834E"/>
<path fill-rule="evenodd" clip-rule="evenodd" d="M17.3774 8.30505C18.1012 8.95608 19.0273 9.25866 19.9392 9.21275L18.6466 10.5055C18.6433 10.5087 18.6401 10.5119 18.6369 10.5151H17.714C17.0896 10.5152 16.5835 10.009 16.5835 9.38461C16.5835 8.8775 16.9174 8.44834 17.3774 8.30505Z" fill="#4F9E91"/>
<path fill-rule="evenodd" clip-rule="evenodd" d="M26.639 7.28335C25.9152 6.63232 24.989 6.32974 24.0771 6.37562L25.3698 5.08295C25.3731 5.07973 25.3762 5.07649 25.3795 5.07324H26.3024C26.9269 5.07324 27.433 5.57942 27.433 6.20379C27.433 6.71093 27.099 7.14006 26.639 7.28335Z" fill="#EBCC6E"/>
<path fill-rule="evenodd" clip-rule="evenodd" d="M21.4972 3.16341C20.8462 3.8872 20.5436 4.81338 20.5895 5.72531L19.2968 4.43261C19.2936 4.4294 19.2904 4.42618 19.2871 4.42297V3.50006C19.2871 2.87569 19.7933 2.36951 20.4176 2.36951C20.9248 2.36951 21.3539 2.70345 21.4972 3.16341Z" fill="#EBE1C5"/>
<path fill-rule="evenodd" clip-rule="evenodd" d="M20.4177 1.44971C19.2853 1.44971 18.3673 2.36768 18.3673 3.50005V3.89882C17.6861 3.72083 16.9311 3.89873 16.3972 4.43259C15.5965 5.2333 15.5965 6.53151 16.3972 7.33222L16.6792 7.61418C16.0716 7.97004 15.6636 8.62969 15.6636 9.38466C15.6636 10.517 16.5815 11.435 17.7139 11.435H18.1127C17.9347 12.1162 18.1126 12.8712 18.6464 13.4051C19.4471 14.2058 20.7453 14.2058 21.5461 13.4051L22.3871 12.5641C23.129 11.8221 23.4755 10.8345 23.4266 9.86313L24.7193 11.1558C25.5201 11.9565 26.8183 11.9565 27.619 11.1558C28.4198 10.3551 28.4198 9.05691 27.619 8.25624L27.3372 7.97431C27.9445 7.61844 28.3527 6.95879 28.3527 6.20383C28.3527 5.07146 27.4345 4.15349 26.3023 4.15349H25.9035C26.0815 3.47221 25.9036 2.71722 25.3697 2.18336C24.5691 1.38264 23.2708 1.38264 22.4701 2.18336L21.6291 3.02441C20.8872 3.76632 20.5407 4.7539 20.5896 5.72529L19.2969 4.43259C19.2936 4.42938 19.2904 4.42616 19.2871 4.42295V3.50005C19.2871 2.87568 19.7933 2.36953 20.4177 2.36953C20.9248 2.36953 21.3539 2.70344 21.4972 3.1634C21.5397 3.11619 21.5836 3.06983 21.6291 3.02441L22.1881 2.46532C21.8323 1.85775 21.1726 1.44971 20.4177 1.44971ZM25.3794 5.07331C25.3762 5.07652 25.373 5.07977 25.3697 5.08298L24.0771 6.37565C24.989 6.32978 25.9151 6.63232 26.6389 7.28338C27.0989 7.1401 27.4329 6.71093 27.4329 6.20383C27.4329 5.57946 26.9268 5.07331 26.3023 5.07331H25.3794ZM18.6368 10.5152C18.64 10.5119 18.6432 10.5087 18.6464 10.5055L19.9391 9.21277C19.0272 9.25868 18.1011 8.9561 17.3773 8.3051C16.9173 8.44839 16.5834 8.87752 16.5834 9.38466C16.5834 10.009 17.0895 10.5152 17.7139 10.5152H18.6368ZM17.342 8.27297C17.3069 8.24055 17.2723 8.20731 17.2383 8.17323V8.17327C17.2723 8.20734 17.3069 8.24055 17.342 8.27297ZM23.5985 14.1388C22.8435 14.1388 22.1839 13.7307 21.828 13.1231L22.3871 12.5641C22.4325 12.5186 22.4765 12.4723 22.5189 12.4251C22.6622 12.885 23.0914 13.219 23.5985 13.219C24.2229 13.219 24.729 12.7128 24.729 12.0884V11.1655C24.994 11.427 25.3124 11.6017 25.6489 11.6896V12.0884C25.6489 13.2208 24.7309 14.1388 23.5985 14.1388ZM24.7193 2.83375C24.2778 2.39227 23.562 2.39227 23.1205 2.83375L22.2795 3.67479C21.3388 4.61552 21.2548 6.08854 22.0276 7.12425L24.7193 4.43256C25.1608 3.99105 25.1608 3.27525 24.7193 2.83375ZM26.9685 10.5054C27.41 10.0639 27.41 9.34813 26.9685 8.90663L26.1275 8.06558C25.1868 7.12489 23.7138 7.04093 22.678 7.81374L25.3697 10.5054C25.8112 10.9469 26.5272 10.9469 26.9685 10.5054ZM20.8956 12.7547C20.4541 13.1962 19.7383 13.1962 19.2968 12.7547C18.8553 12.3132 18.8553 11.5974 19.2968 11.1559L21.9885 8.46417C22.7613 9.49988 22.6774 10.9729 21.7367 11.9136L20.8956 12.7547ZM17.0476 5.08298C16.6061 5.52449 16.6061 6.24029 17.0476 6.68179L17.8887 7.52284C18.8294 8.46353 20.3024 8.54749 21.3381 7.77468L18.6464 5.08298C18.2049 4.64151 17.4891 4.64151 17.0476 5.08298Z" fill="#3D3A2C"/>
<path d="M0.487793 5.59583H1.49329V8.72028H3.22024V9.56671H0.487793V5.59583Z" fill="#3D3A2C"/>
<path d="M5.04578 9.65197C4.70872 9.65197 4.4133 9.59137 4.15956 9.47019C3.90582 9.3452 3.70889 9.17477 3.56875 8.95892C3.43243 8.73925 3.36426 8.48741 3.36426 8.20335C3.36426 7.91932 3.43243 7.66936 3.56875 7.45351C3.70889 7.23384 3.90582 7.06341 4.15956 6.94224C4.4133 6.81724 4.70872 6.75476 5.04578 6.75476C5.38285 6.75476 5.67823 6.81724 5.93198 6.94224C6.18572 7.06341 6.38077 7.23384 6.51709 7.45351C6.65723 7.66936 6.72728 7.91932 6.72728 8.20335C6.72728 8.48741 6.65723 8.73925 6.51709 8.95892C6.38077 9.17477 6.18572 9.3452 5.93198 9.47019C5.67823 9.59137 5.38285 9.65197 5.04578 9.65197ZM5.04578 8.87369C5.2465 8.87369 5.40556 8.81499 5.52295 8.6976C5.64416 8.57639 5.70473 8.41166 5.70473 8.20335C5.70473 7.99507 5.64416 7.83222 5.52295 7.71482C5.40556 7.59362 5.2465 7.53304 5.04578 7.53304C4.84504 7.53304 4.6841 7.59362 4.56292 7.71482C4.4455 7.83222 4.3868 7.99507 4.3868 8.20335C4.3868 8.41166 4.4455 8.57639 4.56292 8.6976C4.6841 8.81499 4.84504 8.87369 5.04578 8.87369Z" fill="#3D3A2C"/>
<path d="M8.60509 10.8734C8.42331 10.8734 8.23962 10.8563 8.05405 10.8222C7.87227 10.7881 7.71508 10.7427 7.58254 10.6859V9.99282C7.88172 10.1216 8.22256 10.186 8.60509 10.186C8.88155 10.186 9.08038 10.1291 9.20156 10.0155C9.32655 9.90193 9.38903 9.73529 9.38903 9.51562V9.35089C9.27921 9.44557 9.14286 9.51941 8.98001 9.57244C8.82094 9.62547 8.65052 9.65197 8.46874 9.65197C8.18092 9.65197 7.92718 9.59137 7.70751 9.47019C7.48787 9.34898 7.31553 9.17856 7.19057 8.95892C7.06936 8.73925 7.00879 8.48741 7.00879 8.20335C7.00879 7.91553 7.06936 7.66179 7.19057 7.44215C7.31175 7.22248 7.48217 7.05393 7.70184 6.93654C7.92148 6.81537 8.17335 6.75476 8.45738 6.75476C8.84747 6.75476 9.16936 6.87406 9.42311 7.11266V6.83996H10.3889V9.3793C10.3889 9.85268 10.243 10.2201 9.95143 10.4814C9.66361 10.7427 9.21482 10.8734 8.60509 10.8734ZM8.71869 8.87938C8.87397 8.87938 9.0122 8.83962 9.13338 8.76008C9.25459 8.68055 9.33979 8.57452 9.38903 8.44195V7.96478C9.336 7.83222 9.24889 7.72806 9.12772 7.65231C9.00651 7.57281 8.87019 7.53304 8.71869 7.53304C8.5142 7.53304 8.34944 7.59362 8.22447 7.71482C8.09948 7.83222 8.037 7.99316 8.037 8.19769C8.037 8.40597 8.09948 8.57261 8.22447 8.6976C8.34944 8.81878 8.5142 8.87938 8.71869 8.87938Z" fill="#3D3A2C"/>
<path d="M12.3241 9.65197C11.987 9.65197 11.6917 9.59137 11.4379 9.47019C11.1842 9.3452 10.9872 9.17477 10.8471 8.95892C10.7108 8.73925 10.6426 8.48741 10.6426 8.20335C10.6426 7.91932 10.7108 7.66936 10.8471 7.45351C10.9872 7.23384 11.1842 7.06341 11.4379 6.94224C11.6917 6.81724 11.987 6.75476 12.3241 6.75476C12.6612 6.75476 12.9566 6.81724 13.2103 6.94224C13.464 7.06341 13.6591 7.23384 13.7954 7.45351C13.9355 7.66936 14.0056 7.91932 14.0056 8.20335C14.0056 8.48741 13.9355 8.73925 13.7954 8.95892C13.6591 9.17477 13.464 9.3452 13.2103 9.47019C12.9566 9.59137 12.6612 9.65197 12.3241 9.65197ZM12.3241 8.87369C12.5248 8.87369 12.6839 8.81499 12.8013 8.6976C12.9225 8.57639 12.9831 8.41166 12.9831 8.20335C12.9831 7.99507 12.9225 7.83222 12.8013 7.71482C12.6839 7.59362 12.5248 7.53304 12.3241 7.53304C12.1234 7.53304 11.9624 7.59362 11.8412 7.71482C11.7238 7.83222 11.6651 7.99507 11.6651 8.20335C11.6651 8.41166 11.7238 8.57639 11.8412 8.6976C11.9624 8.81499 12.1234 8.87369 12.3241 8.87369Z" fill="#3D3A2C"/>
<path d="M30.042 5.59583H31.0476V9.56671H30.042V5.59583Z" fill="#3D3A2C"/>
<path d="M31.5566 6.83996H32.5225V7.11266C32.776 6.87406 33.098 6.75476 33.488 6.75476C33.7721 6.75476 34.0241 6.81537 34.2436 6.93654C34.4634 7.05393 34.6336 7.22248 34.7548 7.44215C34.876 7.65801 34.9368 7.90987 34.9368 8.19769C34.9368 8.48172 34.876 8.73546 34.7548 8.95892C34.6336 9.17856 34.4634 9.34898 34.2436 9.47019C34.0279 9.59137 33.7759 9.65197 33.488 9.65197C33.3063 9.65197 33.132 9.62356 32.9656 9.56674C32.8027 9.51374 32.6663 9.43987 32.5565 9.3452V10.8108H31.5566V6.83996ZM33.2268 8.87369C33.4314 8.87369 33.5962 8.81312 33.7209 8.69191C33.8459 8.57073 33.9086 8.40597 33.9086 8.19769C33.9086 7.98937 33.8459 7.82655 33.7209 7.70913C33.5962 7.58795 33.4314 7.52735 33.2268 7.52735C33.0754 7.52735 32.9389 7.56712 32.8177 7.64665C32.6965 7.7224 32.6096 7.82655 32.5565 7.95909V8.44195C32.6096 8.57452 32.6965 8.68055 32.8177 8.76008C32.9389 8.83583 33.0754 8.87369 33.2268 8.87369Z" fill="#3D3A2C"/>
<path d="M36.4271 9.65197C36.2076 9.65197 35.9785 9.62926 35.7399 9.5838C35.5013 9.54215 35.3117 9.48155 35.1717 9.40201V8.66919C35.327 8.76008 35.5125 8.83583 35.7285 8.89644C35.948 8.95322 36.1487 8.98163 36.3307 8.98163C36.463 8.98163 36.5598 8.97215 36.6202 8.95322C36.681 8.93429 36.7112 8.89644 36.7112 8.83962C36.7112 8.79416 36.6905 8.75818 36.6488 8.73167C36.611 8.70139 36.5388 8.67107 36.4328 8.64078C36.3307 8.60671 36.2114 8.57073 36.0749 8.53284C35.844 8.46467 35.6623 8.39461 35.5296 8.32265C35.397 8.25069 35.2987 8.1598 35.2341 8.04998C35.1698 7.94016 35.1377 7.80193 35.1377 7.63529C35.1377 7.33987 35.2532 7.12023 35.4841 6.97631C35.7189 6.8286 36.039 6.75476 36.4443 6.75476C36.6412 6.75476 36.8477 6.7756 37.0634 6.81724C37.2832 6.85892 37.4477 6.91383 37.5577 6.982V7.70347C37.4442 7.62772 37.2924 7.56521 37.1031 7.51599C36.9177 7.46674 36.7433 7.44215 36.5804 7.44215C36.4519 7.44215 36.3514 7.45539 36.2795 7.48189C36.2076 7.50463 36.1716 7.54628 36.1716 7.60688C36.1716 7.6637 36.2076 7.70725 36.2795 7.73754C36.3514 7.76783 36.4802 7.80572 36.6657 7.85114C36.7869 7.88146 36.8381 7.8947 36.819 7.89091C37.0615 7.9553 37.2488 8.02726 37.3815 8.1068C37.5142 8.18633 37.6067 8.28101 37.6599 8.39083C37.7168 8.49686 37.7451 8.63321 37.7451 8.79985C37.7451 9.06117 37.6315 9.26945 37.4044 9.42473C37.1807 9.57622 36.855 9.65197 36.4271 9.65197Z" fill="#3D3A2C"/>
<path d="M39.2379 9.65198C38.8631 9.65198 38.5809 9.54782 38.3916 9.33954C38.2062 9.13123 38.1133 8.85668 38.1133 8.51583V6.83997H39.1132V8.40219C39.1132 8.71654 39.2551 8.8737 39.5392 8.8737C39.668 8.8737 39.7854 8.84341 39.8913 8.78281C39.9973 8.7222 40.0844 8.63322 40.1525 8.51583V6.83997H41.1524V9.56675H40.1869V9.27137C40.0695 9.39633 39.9273 9.491 39.7606 9.5554C39.5942 9.61979 39.4199 9.65198 39.2379 9.65198Z" fill="#3D3A2C"/>
<path d="M41.6646 6.83996H42.5906V7.13538C42.7042 7.0142 42.835 6.9214 42.9826 6.85701C43.1302 6.78883 43.2874 6.75476 43.4541 6.75476C43.6586 6.75476 43.8215 6.78505 43.9427 6.84565C44.0677 6.90626 44.1679 6.99715 44.2437 7.11832C44.3572 7.00472 44.4956 6.9157 44.6585 6.85135C44.8214 6.78696 44.9862 6.75476 45.1526 6.75476C45.5124 6.75476 45.7682 6.84756 45.9196 7.03313C46.071 7.21491 46.1467 7.4781 46.1467 7.82274V9.56674H45.1923V7.96478C45.1923 7.81329 45.164 7.70347 45.1071 7.63529C45.0504 7.56712 44.9556 7.53304 44.8233 7.53304C44.6528 7.53304 44.5144 7.59362 44.4085 7.71482C44.4123 7.77918 44.4142 7.87768 44.4142 8.01021V9.56674H43.4598V7.92502C43.4598 7.78488 43.4353 7.68451 43.386 7.62393C43.3367 7.56333 43.2495 7.53304 43.1248 7.53304C42.9314 7.53304 42.765 7.64095 42.6247 7.85684V9.56674H41.6646V6.83996Z" fill="#3D3A2C"/>
</g>
<defs>
<clipPath id="clip0_321_115">
<rect width="46.7656" height="14.6341" fill="white" transform="translate(0 0.477173)"/>
</clipPath>
</defs>
</svg>
