<svg width="40" height="14" viewBox="0 0 40 14" fill="none" xmlns="http://www.w3.org/2000/svg">
<g clip-path="url(#clip0_321_152)">
<path d="M28.5032 12.2742C28.7446 12.2742 28.8875 12.0913 28.8875 11.8053C28.8875 11.5088 28.7341 11.3364 28.5083 11.3364C28.3791 11.3364 28.2894 11.3936 28.2223 11.4846H28.2191V11.016H28.0791V12.2481H28.2191V12.131H28.2223C28.2948 12.2309 28.3826 12.2742 28.5032 12.2742ZM28.493 12.1568C28.3034 12.1568 28.2102 12.007 28.2102 11.8069C28.2102 11.6141 28.2999 11.4553 28.4946 11.4553C28.6635 11.4553 28.7446 11.6071 28.7446 11.8069C28.7446 12.0086 28.6635 12.1568 28.493 12.1568ZM29.1239 12.543C29.2323 12.543 29.3014 12.5049 29.3736 12.3203L29.7547 11.357H29.6065L29.4029 11.9122C29.3755 11.9863 29.3443 12.0862 29.3443 12.0862H29.3411C29.3411 12.0862 29.3081 11.9863 29.2807 11.9122L29.0704 11.357H28.9187L29.2667 12.2224L29.2323 12.3102C29.198 12.3964 29.1582 12.419 29.0997 12.419C29.067 12.4206 29.0344 12.4141 29.0049 12.3999H28.9979V12.5239C29.036 12.5395 29.0704 12.543 29.1239 12.543ZM30.112 12.2481H30.3464V11.016H30.112V12.2481ZM30.9197 12.2742C31.1936 12.2742 31.3816 12.0706 31.3816 11.8069C31.3816 11.5431 31.1939 11.3399 30.9197 11.3399C30.6458 11.3399 30.4578 11.5435 30.4578 11.8069C30.4578 12.0709 30.6455 12.2742 30.9197 12.2742ZM30.9197 12.0948C30.775 12.0948 30.6957 11.9793 30.6957 11.8069C30.6957 11.6348 30.775 11.5174 30.9197 11.5174C31.0629 11.5174 31.1437 11.6348 31.1437 11.8069C31.1437 11.9793 31.0629 12.0948 30.9197 12.0948ZM31.8802 12.5497C32.0112 12.5497 32.1248 12.5189 32.1989 12.4498C32.2645 12.3894 32.3042 12.3051 32.3042 12.181V11.364H32.0784V11.4572H32.0749C32.0214 11.3831 31.9406 11.3399 31.8299 11.3399C31.6062 11.3399 31.4475 11.5088 31.4475 11.7725C31.4475 12.0397 31.6406 12.1947 31.8372 12.1947C31.9492 12.1947 32.0163 12.1501 32.0679 12.0913H32.0733V12.188C32.0733 12.3086 32.0096 12.3725 31.8767 12.3725C31.7682 12.3725 31.7182 12.3292 31.6991 12.2739H31.4666C31.4904 12.4463 31.6387 12.5497 31.8802 12.5497ZM31.877 12.007C31.7561 12.007 31.6766 11.9192 31.6766 11.769C31.6766 11.6208 31.7561 11.5279 31.8751 11.5279C32.0163 11.5279 32.0854 11.6379 32.0854 11.7674C32.0854 11.8985 32.0249 12.007 31.8767 12.007H31.877ZM32.874 12.2742C33.1479 12.2742 33.3359 12.0706 33.3359 11.8069C33.3359 11.5431 33.1479 11.3399 32.874 11.3399C32.5998 11.3399 32.4121 11.5435 32.4121 11.8069C32.4121 12.0709 32.5998 12.2742 32.874 12.2742ZM32.874 12.0948C32.7293 12.0948 32.6497 11.9793 32.6497 11.8069C32.6497 11.6348 32.7293 11.5174 32.874 11.5174C33.0169 11.5174 33.098 11.6348 33.098 11.8069C33.098 11.9793 33.0169 12.0948 32.874 12.0948ZM33.4447 12.2481H33.6792V11.364H33.4447V12.2484V12.2481ZM33.4447 11.2263H33.6792V11.016H33.4447V11.226V11.2263ZM33.8303 12.5376H34.0648V12.1485H34.068C34.1182 12.2246 34.199 12.2745 34.3231 12.2745C34.5506 12.2745 34.7058 12.0932 34.7058 11.8072C34.7058 11.5314 34.556 11.3402 34.3215 11.3402C34.2704 11.3393 34.2199 11.3512 34.1745 11.3747C34.129 11.3982 34.0902 11.4325 34.0613 11.4747H34.0562V11.3643H33.8303V12.5383V12.5376ZM34.2732 12.0795C34.1335 12.0795 34.0594 11.9742 34.0594 11.8139C34.0594 11.6554 34.1182 11.5295 34.2646 11.5295C34.4093 11.5295 34.4679 11.6465 34.4679 11.8139C34.4679 11.9812 34.3921 12.0792 34.2732 12.0792V12.0795ZM35.1735 12.2742C35.3939 12.2742 35.5457 12.1673 35.5457 11.9898C35.5457 11.783 35.3819 11.7417 35.2336 11.7105C35.1079 11.6847 34.9909 11.6777 34.9909 11.602C34.9909 11.5384 35.051 11.5034 35.1423 11.5034C35.2425 11.5034 35.3026 11.5384 35.3131 11.6329H35.525C35.5078 11.4553 35.3787 11.3402 35.1458 11.3402C34.9441 11.3402 34.7857 11.4312 34.7857 11.6227C34.7857 11.8155 34.9406 11.8587 35.0994 11.8899C35.2199 11.9138 35.3319 11.9224 35.3319 12.007C35.3319 12.069 35.2734 12.1088 35.17 12.1088C35.065 12.1088 34.9925 12.0639 34.9769 11.9621H34.7599C34.7736 12.1498 34.9167 12.2739 35.1735 12.2739V12.2742ZM36.4358 12.2481V11.364H36.2014V11.8743C36.2014 11.9914 36.1339 12.0741 36.0239 12.0741C35.924 12.0741 35.8772 12.0172 35.8772 11.9138V11.364H35.6446V11.9535C35.6446 12.1466 35.755 12.2723 35.9513 12.2723C36.0754 12.2723 36.1444 12.2259 36.2049 12.145H36.21V12.2481H36.4358ZM36.5873 12.2481H36.8217V11.735C36.8217 11.6176 36.8854 11.5419 36.9802 11.5419C37.0664 11.5419 37.1163 11.5937 37.1163 11.6936V12.2484H37.3508V11.735C37.3508 11.6176 37.4112 11.5419 37.5095 11.5419C37.5957 11.5419 37.6457 11.5937 37.6457 11.6936V12.2484H37.8802V11.6538C37.8802 11.4607 37.7749 11.3402 37.5888 11.3402C37.4768 11.3402 37.3836 11.3987 37.3234 11.4954H37.3199C37.2987 11.4485 37.2642 11.4087 37.2207 11.3812C37.1771 11.3536 37.1265 11.3393 37.075 11.3402C37.0233 11.3389 36.9722 11.3515 36.927 11.3767C36.8819 11.4018 36.8443 11.4387 36.8182 11.4833H36.8131V11.3643H36.5873V12.2488V12.2481Z" fill="#E5708C"/>
<path d="M37.9261 1.11533C37.9261 0.738983 38.2312 0.433574 38.6075 0.433574H39.0621C39.2429 0.433574 39.4163 0.505402 39.5442 0.633257C39.672 0.761112 39.7439 0.93452 39.7439 1.11533C39.7439 1.29615 39.672 1.46956 39.5442 1.59741C39.4163 1.72527 39.2429 1.79709 39.0621 1.79709H38.6075C38.518 1.79709 38.4293 1.77946 38.3467 1.74519C38.264 1.71093 38.1888 1.6607 38.1255 1.59739C38.0623 1.53408 38.0121 1.45892 37.9778 1.37621C37.9436 1.2935 37.926 1.20485 37.9261 1.11533ZM18.8409 4.97779C18.8409 7.48723 16.8068 9.5217 14.297 9.5217C11.7876 9.5217 9.7531 7.48723 9.7531 4.97779C9.7531 2.46772 11.7876 0.433892 14.297 0.433892C16.8068 0.433892 18.8409 2.46772 18.8409 4.97779ZM8.86678 4.95521C9.11811 4.95521 9.32362 5.15881 9.29849 5.40887C9.2126 6.26459 8.88563 7.07837 8.35557 7.75562C7.82551 8.43288 7.11414 8.9458 6.30412 9.23479C5.4941 9.52376 4.6187 9.57693 3.77967 9.38811C2.94063 9.19929 2.17241 8.77623 1.56428 8.1681C0.95615 7.55998 0.533092 6.79175 0.34427 5.95271C0.155448 5.11368 0.208616 4.23828 0.497596 3.42826C0.786576 2.61824 1.2995 1.90687 1.97676 1.37681C2.65401 0.846754 3.46779 0.51978 4.32351 0.433892C4.57325 0.408442 4.77717 0.614592 4.77717 0.865282V4.50059C4.77717 4.75192 4.98078 4.95521 5.23179 4.95521H8.86678ZM25.2026 10.4306C25.5642 10.4306 25.9109 10.5742 26.1666 10.8299C26.4222 11.0855 26.5658 11.4323 26.5658 11.7938C26.5658 12.1554 26.4222 12.5021 26.1666 12.7577C25.9109 13.0134 25.5642 13.157 25.2026 13.157H22.9308C22.5693 13.157 22.2226 13.0134 21.9669 12.7577C21.7113 12.5021 21.5676 12.1554 21.5676 11.7938C21.5676 11.4323 21.7113 11.0855 21.9669 10.8299C22.2226 10.5742 22.5693 10.4306 22.9308 10.4306H25.2026ZM23.8394 9.5217C26.3492 9.5217 28.3836 7.48723 28.3836 4.97779C28.3847 4.20694 28.1888 3.44859 27.8145 2.77472L28.5653 2.02392C28.6518 1.9374 28.7204 1.83469 28.7672 1.72166C28.8139 1.60863 28.838 1.48749 28.838 1.36516C28.8379 1.24283 28.8138 1.1217 28.767 1.0087C28.7201 0.895688 28.6515 0.793013 28.565 0.706533C28.4785 0.620053 28.3757 0.551461 28.2627 0.504674C28.1497 0.457887 28.0285 0.433822 27.9062 0.433851C27.7839 0.433881 27.6628 0.458005 27.5497 0.504846C27.4367 0.551688 27.3341 0.620329 27.2476 0.706851L26.5922 1.36221C25.8016 0.758359 24.834 0.431973 23.8391 0.433574C21.33 0.433892 19.2958 2.46772 19.2958 4.97779C19.2958 7.48723 21.3303 9.5217 23.8397 9.5217H23.8394ZM37.9261 4.97779C37.9261 7.48723 35.8916 9.5217 33.3818 9.5217C30.8724 9.5217 28.8379 7.48723 28.8379 4.97779C28.8379 2.46772 30.8724 0.433892 33.3818 0.433892C35.8916 0.433892 37.9261 2.46804 37.9261 4.97779Z" fill="url(#paint0_linear_321_152)"/>
</g>
<defs>
<linearGradient id="paint0_linear_321_152" x1="0.233271" y1="5.5218" x2="38.0912" y2="5.5218" gradientUnits="userSpaceOnUse">
<stop stop-color="#64C2DB"/>
<stop offset="0.307" stop-color="#7476ED"/>
<stop offset="0.604" stop-color="#C994DF"/>
<stop offset="1" stop-color="#E56F8C"/>
</linearGradient>
<clipPath id="clip0_321_152">
<rect width="39.7667" height="12.7253" fill="white" transform="translate(0.233398 0.431641)"/>
</clipPath>
</defs>
</svg>
