<svg width="17" height="13" viewBox="0 0 17 13" fill="none" xmlns="http://www.w3.org/2000/svg">
<path fill-rule="evenodd" clip-rule="evenodd" d="M1.83407 1.83333H15.1674V3.00929L8.50073 6.34262L1.83407 3.00929V1.83333ZM0.500732 1.83333C0.500732 1.09695 1.09769 0.5 1.83407 0.5H15.1674C15.9038 0.5 16.5007 1.09695 16.5007 1.83333V3.83333V10.5C16.5007 11.6046 15.6053 12.5 14.5007 12.5H2.50073C1.39616 12.5 0.500732 11.6046 0.500732 10.5V3.83333V1.83333ZM1.83407 4.5V10.5C1.83407 10.8682 2.13254 11.1667 2.50073 11.1667H14.5007C14.8689 11.1667 15.1674 10.8682 15.1674 10.5V4.5L8.50073 7.83333L1.83407 4.5Z" fill="#F5841F"/>
</svg>
