<svg width="120" height="29" viewBox="0 0 120 29" fill="none" xmlns="http://www.w3.org/2000/svg">
<path d="M36.6069 19.9025H45.0436V17.3561H39.6055V7.76489H36.6069V19.9025Z" fill="#16213C"/>
<path d="M50.0424 18.2049C48.8396 18.2049 48.2128 17.1524 48.2128 15.5737C48.2128 13.9949 48.8396 12.9255 50.0424 12.9255C51.2452 12.9255 51.889 13.9949 51.889 15.5737C51.889 17.1524 51.2452 18.2049 50.0424 18.2049ZM50.0594 20.174C52.8547 20.174 54.6843 18.1879 54.6843 15.5737C54.6843 12.9594 52.8547 10.9733 50.0594 10.9733C47.281 10.9733 45.4175 12.9594 45.4175 15.5737C45.4175 18.1879 47.281 20.174 50.0594 20.174Z" fill="#16213C"/>
<path d="M59.5227 22.9071C60.8103 22.9071 61.9453 22.6185 62.7077 21.9395C63.4023 21.3114 63.8597 20.3608 63.8597 19.0537V11.2109H61.2168V12.1446H61.183C60.6747 11.4146 59.8954 10.9563 58.7434 10.9563C56.5919 10.9563 55.1011 12.7557 55.1011 15.3021C55.1011 17.9672 56.9138 19.4271 58.862 19.4271C59.9124 19.4271 60.5731 19.0027 61.0813 18.4256H61.1491V19.2913C61.1491 20.3438 60.6578 20.9549 59.4888 20.9549C58.574 20.9549 58.1166 20.5645 57.9641 20.1062H55.2874C55.5585 21.9225 57.134 22.9071 59.5227 22.9071ZM59.5058 17.3731C58.4724 17.3731 57.7947 16.5243 57.7947 15.2172C57.7947 13.8931 58.4724 13.0443 59.5058 13.0443C60.6578 13.0443 61.2677 14.0289 61.2677 15.2002C61.2677 16.4224 60.7086 17.3731 59.5058 17.3731Z" fill="#16213C"/>
<path d="M69.2939 18.2049C68.0911 18.2049 67.4642 17.1524 67.4642 15.5737C67.4642 13.9949 68.0911 12.9255 69.2939 12.9255C70.4967 12.9255 71.1405 13.9949 71.1405 15.5737C71.1405 17.1524 70.4967 18.2049 69.2939 18.2049ZM69.3108 20.174C72.1061 20.174 73.9358 18.1879 73.9358 15.5737C73.9358 12.9594 72.1061 10.9733 69.3108 10.9733C66.5325 10.9733 64.6689 12.9594 64.6689 15.5737C64.6689 18.1879 66.5325 20.174 69.3108 20.174Z" fill="#16213C"/>
<path d="M74.7417 19.9025H77.5031V11.2109H74.7417V19.9025ZM74.7417 10.0057H77.5031V7.76489H74.7417V10.0057Z" fill="#16213C"/>
<path d="M78.7017 22.7713H81.4631V19.0027H81.497C82.0391 19.7327 82.8353 20.1741 83.9534 20.1741C86.2235 20.1741 87.7313 18.3746 87.7313 15.5567C87.7313 12.9424 86.3252 10.9563 84.0212 10.9563C82.8353 10.9563 81.9882 11.4825 81.3953 12.2634H81.3445V11.2109H78.7017V22.7713ZM83.2419 18.0351C82.056 18.0351 81.3784 17.0675 81.3784 15.6585C81.3784 14.2496 81.9882 13.1801 83.1911 13.1801C84.3769 13.1801 84.936 14.1647 84.936 15.6585C84.936 17.1354 84.2922 18.0351 83.2419 18.0351Z" fill="#16213C"/>
<path d="M92.2271 20.1741C94.4973 20.1741 96.1744 19.1895 96.1744 17.2882C96.1744 15.0644 94.3787 14.674 92.854 14.4193C91.7528 14.2156 90.7702 14.1307 90.7702 13.5196C90.7702 12.9764 91.2954 12.7218 91.973 12.7218C92.7354 12.7218 93.2606 12.9594 93.3622 13.7403H95.9034C95.7679 12.0258 94.4464 10.9563 91.99 10.9563C89.9401 10.9563 88.246 11.9069 88.246 13.7403C88.246 15.7774 89.8554 16.1848 91.3631 16.4394C92.5151 16.6431 93.5655 16.728 93.5655 17.5089C93.5655 18.0691 93.0403 18.3746 92.2102 18.3746C91.2954 18.3746 90.7194 17.9503 90.6177 17.0845H88.0088C88.0935 19.0027 89.686 20.1741 92.2271 20.1741Z" fill="#16213C"/>
<path d="M99.9254 20.1571C101.128 20.1571 101.891 19.6818 102.517 18.833H102.568V19.9024H105.211V11.2109H102.45V16.066C102.45 17.1015 101.874 17.8144 100.925 17.8144C100.044 17.8144 99.6204 17.2882 99.6204 16.3376V11.2109H96.876V16.9147C96.876 18.85 97.9263 20.1571 99.9254 20.1571Z" fill="#16213C"/>
<path d="M106.412 19.9024H109.173V15.0304C109.173 13.9949 109.681 13.265 110.545 13.265C111.375 13.265 111.765 13.8082 111.765 14.7419V19.9024H114.526V15.0304C114.526 13.9949 115.018 13.265 115.899 13.265C116.729 13.265 117.118 13.8082 117.118 14.7419V19.9024H119.88V14.2496C119.88 12.2974 118.897 10.9563 116.932 10.9563C115.814 10.9563 114.882 11.4316 114.205 12.4841H114.171C113.73 11.5504 112.866 10.9563 111.731 10.9563C110.478 10.9563 109.647 11.5504 109.105 12.4502H109.054V11.2109H106.412V19.9024Z" fill="#16213C"/>
<path fill-rule="evenodd" clip-rule="evenodd" d="M14.6006 28.3903C22.3975 28.3903 28.7182 22.0568 28.7182 14.244C28.7182 6.43119 22.3975 0.0976562 14.6006 0.0976562C6.80358 0.0976562 0.48291 6.43119 0.48291 14.244C0.48291 22.0568 6.80358 28.3903 14.6006 28.3903ZM19.0048 6.68762C19.2192 5.92457 18.4802 5.47336 17.8053 5.95516L8.38393 12.6805C7.65201 13.203 7.76713 14.244 8.55688 14.244H11.0378V14.2247H15.8729L11.9332 15.6177L10.1964 21.8004C9.98198 22.5634 10.7209 23.0146 11.3959 22.5328L20.8172 15.8075C21.5491 15.285 21.4339 14.244 20.6443 14.244H16.8821L19.0048 6.68762Z" fill="#F5841F"/>
</svg>
