<svg width="17" height="17" viewBox="0 0 17 17" fill="none" xmlns="http://www.w3.org/2000/svg">
<path fill-rule="evenodd" clip-rule="evenodd" d="M3.90047 1.83391C4.42105 1.31289 5.26547 1.31266 5.78634 1.83338L8.24817 4.2945C8.76884 4.81503 8.76908 5.65905 8.24869 6.17987L7.37612 7.05317L10.2123 9.88892L11.0843 9.01619C11.6049 8.49517 12.4493 8.49494 12.9702 9.01566L15.1673 11.2121C15.688 11.7327 15.6882 12.5767 15.1678 13.0975L13.7144 14.5521C12.8622 15.405 11.5503 15.5954 10.4909 15.0198C6.89261 13.065 3.9368 10.1096 1.98113 6.51191C1.40555 5.45304 1.59489 4.14139 2.44686 3.28872L3.90047 1.83391ZM7.30549 5.23745L4.84367 2.77633L3.39006 4.23114C2.95563 4.66593 2.85896 5.33497 3.15258 5.87513C4.98533 9.24671 7.75536 12.0164 11.1274 13.8482C11.6676 14.1417 12.3366 14.0446 12.7712 13.6097L14.2246 12.1551L12.0275 9.9586L10.2128 11.7748L5.49081 7.05363L7.30549 5.23745Z" fill="#F5841F"/>
</svg>
